HIERARCHY
ROOT root
{
	OFFSET 0.000000 0.000000 0.000000
	CHANNELS 6 Xposition Yposition Zposition Zrotation Yrotation Xrotation
	JOINT lhip
	{
		OFFSET 0.058581 -0.082280 -0.017664
		CHANNELS 3 Zrotation Yrotation Xrotation
		JOINT lknee
		{
			OFFSET 0.043451 -0.386469 0.008037
			CHANNELS 3 Zrotation Yrotation Xrotation
			JOINT lankle
			{
				OFFSET -0.014790 -0.426874 -0.037428
				CHANNELS 3 Zrotation Yrotation Xrotation
				JOINT ltoe
				{
					OFFSET 0.041054 -0.060286 0.122042
					CHANNELS 3 Zrotation Yrotation Xrotation
					End Site
					{
						OFFSET 0.000000 0.000000 0.000000
					}
				}
			}
		}
	}
	JOINT rhip
	{
		OFFSET -0.060310 -0.090513 -0.013543
		CHANNELS 3 Zrotation Yrotation Xrotation
		JOINT rknee
		{
			OFFSET -0.043257 -0.383688 -0.004843
			CHANNELS 3 Zrotation Yrotation Xrotation
			JOINT rankle
			{
				OFFSET 0.019056 -0.420046 -0.034562
				CHANNELS 3 Zrotation Yrotation Xrotation
				JOINT rtoe
				{
					OFFSET -0.034840 -0.062106 0.130323
					CHANNELS 3 Zrotation Yrotation Xrotation
					End Site
					{
						OFFSET 0.000000 0.000000 0.000000
					}
				}
			}
		}
	}
	JOINT lowerback
	{
		OFFSET 0.004439 0.124404 -0.038385
		CHANNELS 3 Zrotation Yrotation Xrotation
		JOINT upperback
		{
			OFFSET 0.004488 0.137956 0.026820
			CHANNELS 3 Zrotation Yrotation Xrotation
			JOINT chest
			{
				OFFSET -0.002265 0.056032 0.002855
				CHANNELS 3 Zrotation Yrotation Xrotation
				JOINT lowerneck
				{
					OFFSET -0.013390 0.211636 -0.033468
					CHANNELS 3 Zrotation Yrotation Xrotation
					JOINT upperneck
					{
						OFFSET 0.010113 0.088937 0.050410
						CHANNELS 3 Zrotation Yrotation Xrotation
						End Site
						{
							OFFSET 0.000000 0.000000 0.000000
						}
					}
				}
				JOINT lclavicle
				{
					OFFSET 0.071702 0.114000 -0.018898
					CHANNELS 3 Zrotation Yrotation Xrotation
					JOINT lshoulder
					{
						OFFSET 0.122921 0.045205 -0.019046
						CHANNELS 3 Zrotation Yrotation Xrotation
						JOINT lelbow
						{
							OFFSET 0.255332 -0.015649 -0.022946
							CHANNELS 3 Zrotation Yrotation Xrotation
							JOINT lwrist
							{
								OFFSET 0.265709 0.012698 -0.007375
								CHANNELS 3 Zrotation Yrotation Xrotation
								End Site
								{
									OFFSET 0.000000 0.000000 0.000000
								}
							}
						}
					}
				}
				JOINT rclavicle
				{
					OFFSET -0.082954 0.112472 -0.023707
					CHANNELS 3 Zrotation Yrotation Xrotation
					JOINT rshoulder
					{
						OFFSET -0.113228 0.046853 -0.008472
						CHANNELS 3 Zrotation Yrotation Xrotation
						JOINT relbow
						{
							OFFSET -0.260127 -0.014369 -0.031269
							CHANNELS 3 Zrotation Yrotation Xrotation
							JOINT rwrist
							{
								OFFSET -0.269108 0.006794 -0.006027
								CHANNELS 3 Zrotation Yrotation Xrotation
								End Site
								{
									OFFSET 0.000000 0.000000 0.000000
								}
							}
						}
					}
				}
			}
		}
	}
}
MOTION
Frames: 18
Frame Time: 0.033333
-0.251121 1.996456 1.019428 1.054952 0.252074 83.004688 7.313888 4.271738 5.208751 -0.904883 0.383104 2.875011 -0.365736 12.255991 -6.021529 0.000000 -0.000000 0.000000 -1.024728 -3.591681 4.030378 1.491871 4.001550 7.090201 4.090320 -6.007702 -7.670048 0.000000 -0.000000 0.000000 1.398640 1.483951 3.077663 0.199605 -3.025660 4.113024 -0.234464 2.412449 -0.559201 -1.834678 -3.586408 8.643482 4.577343 -2.707547 6.061821 4.935106 -26.992772 -12.455953 -31.586760 -36.761465 5.646962 12.654100 -59.814851 -0.791641 6.144991 -8.565793 -25.760334 -5.357884 29.233822 -7.030356 21.754410 41.044723 -5.136044 -30.342535 57.308982 -16.983279 5.617208 8.789953 -11.748757 
-0.253655 1.995531 1.018257 1.246861 0.118913 82.991774 7.382675 4.199435 5.196745 -1.006545 1.001461 2.877965 -0.173346 11.440028 -6.137898 0.000000 -0.000000 0.000000 -1.000455 -3.631099 3.704123 1.432167 3.330630 7.622417 3.646043 -5.295022 -7.361259 0.000000 -0.000000 0.000000 1.169764 1.697493 3.096714 0.559203 -2.997087 4.955893 -0.330434 2.412256 -0.990224 -1.518293 -3.013602 6.426636 4.275708 -3.471193 6.161380 -0.478507 -27.605592 -10.051435 -35.519921 -36.085862 8.268264 12.014773 -58.283776 -0.637588 7.280831 -7.881519 -24.250648 0.675332 29.493463 -4.262617 26.979182 40.934783 -0.942107 -29.370076 57.000127 -15.757165 5.923877 9.080303 -10.925221 
-0.256336 1.994520 1.017428 1.440286 -0.056583 82.967490 7.378817 4.072163 5.183375 -1.065362 1.484591 2.985607 0.004979 10.814432 -6.328099 0.000000 -0.000000 0.000000 -1.068486 -3.566461 3.483078 1.473230 2.633923 8.144043 3.231408 -4.739875 -7.325633 0.000000 -0.000000 0.000000 0.877485 2.000363 3.036949 0.947927 -2.875930 5.809984 -0.344348 2.350913 -1.261777 -1.166412 -2.321642 4.456131 3.782660 -4.446085 6.347003 -6.353836 -27.798654 -7.327954 -38.369683 -34.679390 10.215223 11.361998 -57.030957 -0.166723 7.660822 -7.712756 -22.401490 7.009111 28.973679 -1.199126 31.150772 39.746078 2.454257 -28.258183 56.938884 -15.139574 5.864059 8.847165 -11.045135 
-0.259443 1.993447 1.016895 1.625645 -0.192114 82.931305 7.419992 3.983210 5.201571 -1.078192 1.790262 3.114571 0.112125 10.397375 -6.542944 0.000000 -0.000000 0.000000 -1.068799 -3.401751 3.411240 1.584166 2.120225 8.486375 2.879819 -4.353527 -7.561302 0.000000 -0.000000 0.000000 0.614029 2.122780 3.069343 1.340726 -2.752519 6.565624 -0.237679 2.333642 -1.456213 -1.176767 -1.872118 2.823873 3.323557 -5.006923 6.218450 -11.781873 -27.169737 -4.678638 -41.278104 -32.793060 11.689978 11.165597 -55.601879 -0.259215 8.081134 -7.081310 -21.305227 12.587643 28.016115 1.598446 34.478033 37.409818 5.299816 -27.026508 56.899862 -13.984075 5.633976 8.481241 -11.545495 
-0.262805 1.992184 1.016215 1.877361 -0.266040 82.926316 7.513541 3.924884 5.190764 -1.029100 1.886899 3.227880 0.194140 10.060349 -6.636976 0.000000 -0.000000 0.000000 -0.979324 -3.383110 3.388497 1.651124 1.755433 8.722491 2.484218 -4.027451 -7.861374 0.000000 -0.000000 0.000000 0.725073 2.110364 3.213735 1.523467 -2.682736 7.129433 -0.359599 2.232952 -1.612016 -1.235854 -1.454515 1.491418 2.968295 -5.216018 6.303734 -16.156765 -25.721614 -2.549025 -44.072567 -30.555439 12.653394 10.580558 -53.876783 -0.234692 9.045576 -6.412128 -20.155036 16.938775 26.408889 3.779965 38.819896 34.988189 7.895723 -26.298472 55.964445 -13.555233 5.447890 8.206042 -11.628190 
-0.266285 1.990280 1.015294 2.131502 -0.374059 83.014734 7.560877 3.867079 5.112819 -0.950929 1.879669 3.335041 0.225191 9.893852 -6.754615 0.000000 -0.000000 0.000000 -0.919763 -3.321071 3.372645 1.755767 1.467491 8.931446 2.063751 -3.898192 -8.193129 0.000000 -0.000000 0.000000 0.879623 1.977862 3.243014 1.647128 -2.600519 7.567332 -0.559527 2.083245 -1.605542 -1.241171 -1.137771 0.485439 2.604301 -5.217423 6.132938 -19.491224 -23.898647 -0.948516 -45.830743 -28.024033 13.393252 9.389147 -52.279582 0.937527 9.603449 -5.757767 -19.619984 20.412259 24.289992 5.703551 41.593774 32.669490 9.641825 -23.770476 55.003303 -11.486835 4.674914 7.738868 -11.677148 
-0.269993 1.987713 1.014627 2.373489 -0.480478 83.040476 7.681139 3.822183 5.294974 -0.992362 1.628567 3.163342 0.314296 9.943641 -6.728027 0.000000 -0.000000 0.000000 -0.888417 -3.302653 3.543924 1.941766 1.378663 9.011126 1.844059 -3.963957 -8.535120 0.000000 -0.000000 0.000000 0.980556 1.867140 3.326341 1.737410 -2.594983 7.958274 -0.579723 2.001216 -1.617962 -1.520388 -1.142740 -0.143804 2.644157 -4.872023 5.886857 -21.874974 -22.163809 0.423286 -47.695945 -25.229573 13.797718 8.370624 -50.661496 1.077733 11.528622 -4.582926 -19.130822 22.692209 22.714163 7.067038 43.928186 29.280825 11.085828 -22.793786 53.868977 -10.641365 3.833174 7.449624 -10.674830 
-0.274628 1.985435 1.013818 2.417630 -0.567019 83.217027 7.896759 3.877310 5.263835 -1.066278 1.420035 3.261606 0.494741 10.086761 -6.837567 0.000000 -0.000000 0.000000 -0.701858 -3.187685 3.502780 2.052451 1.474059 9.216118 1.587144 -4.197409 -8.938274 0.000000 -0.000000 0.000000 1.039691 1.728200 3.324762 1.779515 -2.426543 8.161836 -0.598540 1.898107 -1.503457 -1.502388 -1.043930 -0.592802 2.602951 -4.460337 5.710821 -23.846785 -19.965142 1.625125 -48.850006 -22.579721 13.434118 7.079185 -49.390798 2.472825 11.665076 -4.141681 -18.418456 24.114480 20.840738 7.954633 46.555035 26.128371 12.209910 -21.915317 52.713152 -9.734672 3.925426 7.169401 -10.455180 
-0.279307 1.982735 1.012903 2.451834 -0.648943 83.387106 8.060580 3.813961 5.230072 -1.059224 1.218029 3.408883 0.519791 10.334623 -6.975942 0.000000 -0.000000 0.000000 -0.497133 -3.150346 3.475216 2.144029 1.628821 9.359882 1.293329 -4.363763 -9.311498 0.000000 -0.000000 0.000000 1.106324 1.677489 3.129524 1.897716 -2.409393 8.542327 -0.665680 1.707681 -1.244451 -1.389831 -0.859725 -0.842794 2.460535 -4.210789 5.165016 -25.219205 -17.767594 2.536862 -49.875442 -19.976727 13.257976 6.241023 -47.937856 4.174067 11.398780 -3.858403 -18.881612 25.119539 18.671486 8.627588 48.649176 23.604046 12.842791 -20.722283 51.500416 -8.078376 3.470557 6.637288 -11.453805 
-0.284080 1.979790 1.012181 2.383896 -0.759957 83.466972 8.236338 3.874777 5.258925 -1.060731 1.071571 3.680603 0.423428 10.458216 -7.197860 0.000000 -0.000000 0.000000 -0.358933 -3.048572 3.586013 2.289625 1.695727 9.484293 1.078427 -4.413607 -9.662277 0.000000 -0.000000 0.000000 1.210044 1.493608 3.314336 1.902917 -2.328218 8.540717 -0.716219 1.539189 -1.076501 -1.302604 -0.686983 -0.894600 2.306049 -3.771984 4.737953 -26.469704 -15.323483 3.251491 -50.574958 -17.338977 12.702717 5.889587 -46.840758 4.678566 11.322644 -3.815736 -18.492284 25.931052 16.543927 8.943172 50.627667 20.966959 13.418077 -20.261438 50.168614 -7.618463 2.795909 6.107925 -11.605811 
-0.288599 1.976748 1.011300 2.297697 -0.877364 83.455201 8.320893 3.924022 5.209385 -0.955980 0.811899 4.289812 0.449654 10.779970 -7.469143 0.000000 -0.000000 0.000000 -0.297758 -2.993605 3.807562 2.531726 1.913937 9.556871 0.792232 -4.561066 -10.021320 0.000000 -0.000000 0.000000 1.458938 1.342094 3.656589 1.777003 -2.297205 8.444735 -0.848132 1.233375 -0.824367 -1.094416 -0.514124 -0.883460 2.062254 -3.262083 4.267596 -27.582408 -12.649510 3.748978 -50.758873 -14.718714 11.957684 5.460926 -46.316843 5.750187 11.664634 -3.459645 -18.840660 26.493930 14.472042 8.906906 52.526133 18.543659 13.767557 -19.771220 48.812187 -7.436022 1.016187 5.746440 -12.795910 
-0.293263 1.974713 1.010323 1.835421 -1.013667 83.381289 8.453196 4.116846 5.151845 -0.974481 0.896986 5.004437 0.406259 11.255618 -7.686903 0.000000 -0.000000 0.000000 -0.176926 -2.654788 3.862207 2.687147 2.017060 9.864050 0.615083 -4.563485 -10.332707 0.000000 -0.000000 0.000000 1.533932 1.007364 4.205639 1.756568 -2.053279 8.321239 -0.953399 1.182561 -0.430990 -0.898188 -0.152055 -1.129453 1.729566 -2.905558 3.893111 -28.263508 -9.942920 3.767442 -51.302411 -12.245171 11.118480 5.717444 -45.519383 5.524772 12.127247 -2.802341 -18.945140 26.996661 12.274056 8.699057 54.003735 16.662240 13.836151 -19.688596 47.406312 -7.690533 -0.389570 5.445561 -12.874881 
-0.297621 1.970999 1.009796 1.595906 -1.018210 83.281898 8.564471 4.202815 5.003230 -0.774179 0.916870 6.046330 0.357756 11.754125 -8.030806 0.000000 -0.000000 0.000000 0.092129 -2.750218 4.235406 2.762333 2.381979 9.833212 0.440568 -4.668065 -10.577077 0.000000 -0.000000 0.000000 1.650137 0.831316 4.462101 1.874514 -2.126727 8.356572 -0.898561 1.071105 -0.016055 -1.114291 -0.288804 -1.045847 1.476128 -2.409519 3.317069 -28.869723 -7.008070 3.728151 -52.293952 -10.062831 10.074338 6.565347 -44.502216 4.546614 13.395068 -1.822057 -18.522144 27.390772 10.203157 8.527724 54.769987 14.576091 13.541534 -19.319063 46.634647 -7.898076 -2.411261 4.973345 -12.887451 
-0.301421 1.967551 1.009296 1.050319 -1.161063 83.328206 8.406718 4.252734 4.745965 -0.525300 1.306159 7.071145 0.447426 12.506916 -8.356537 0.000000 -0.000000 0.000000 0.216833 -2.662876 4.268408 2.774275 2.765761 10.075200 0.304213 -4.623694 -10.852449 0.000000 -0.000000 0.000000 1.699646 0.793298 4.732019 1.834067 -1.958990 8.200200 -0.798173 1.022243 0.425957 -1.343581 -0.436998 -0.868588 1.331888 -1.732649 2.758623 -29.101085 -4.118891 3.554680 -53.681293 -7.872440 9.069837 7.889890 -43.353036 3.251437 14.132651 -1.068064 -18.658287 27.561677 8.035760 8.244305 55.320480 12.516495 13.089766 -18.618496 46.259611 -7.861191 -3.745047 4.575505 -13.348908 
-0.304606 1.963929 1.008942 0.498454 -1.289410 83.364879 8.314415 4.243190 4.342206 -0.581190 1.887266 8.415287 0.472221 13.412185 -8.686104 0.000000 -0.000000 0.000000 0.337347 -2.719732 4.333684 2.719937 3.273584 10.289112 0.259853 -4.553035 -11.044376 0.000000 -0.000000 0.000000 1.766206 0.903725 4.889028 1.857073 -1.796254 8.196268 -0.688147 0.997396 0.921123 -1.608141 -0.623667 -0.768279 1.230664 -1.148124 2.122297 -29.146896 -1.314150 3.243147 -55.081491 -5.957104 7.959777 8.867295 -41.841378 2.561183 14.125974 -0.284655 -18.918944 27.599822 5.781114 8.012673 55.502200 10.618793 12.406209 -17.972796 46.124775 -7.422532 -4.029815 4.378609 -13.319997 
-0.307003 1.960841 1.008686 -0.164930 -1.544931 83.384013 8.070323 4.198372 3.816055 -0.964437 2.827899 9.900270 0.616121 14.190092 -9.396873 0.000000 -0.000000 0.000000 0.239628 -2.832960 4.333418 2.685192 3.895391 10.618470 0.264670 -4.412249 -11.187878 0.000000 -0.000000 0.000000 1.638443 1.202566 5.198436 1.932966 -1.543811 8.048731 -0.534521 1.002946 1.537026 -1.853262 -0.835371 -0.859187 1.167724 -0.624074 1.730687 -29.086986 1.378298 2.754990 -56.413074 -4.435574 6.742003 9.919363 -39.973359 1.363871 15.477730 0.120493 -17.557330 27.644857 3.483102 7.577891 55.081481 8.849697 11.757951 -16.946688 45.926351 -6.451539 -4.514445 4.537392 -12.645182 
-0.308887 1.957719 1.008619 -0.524755 -1.643450 83.388304 7.759253 3.989602 3.392937 -1.335882 3.066596 11.018318 0.415749 14.420566 -10.189749 0.000000 -0.000000 0.000000 0.277186 -2.624393 4.395664 2.743608 4.103537 10.851078 0.353721 -4.555756 -11.387139 0.000000 -0.000000 0.000000 1.672185 1.228146 5.675248 1.989378 -1.245767 7.823283 -0.407392 1.002952 2.041525 -2.016928 -0.960472 -0.865439 0.939914 -0.249017 1.150153 -28.948482 4.009493 2.253322 -57.155654 -2.746626 5.708229 10.154763 -38.473509 1.583589 14.489293 0.073542 -16.494473 27.614862 1.250066 7.012161 54.358253 7.049801 11.182203 -15.846871 45.602469 -5.101356 -3.589438 4.619905 -11.392684 
-0.310394 1.954288 1.008653 -0.626035 -1.509705 83.167454 7.529570 3.108473 3.050542 -1.900192 2.966170 12.311361 -1.117825 13.463525 -12.967238 0.000000 -0.000000 0.000000 0.696582 -2.360759 4.848805 2.164046 3.109443 10.887433 1.245794 -3.488361 -12.564045 0.000000 -0.000000 0.000000 2.036831 1.381511 6.358723 1.935693 -1.173223 7.496057 -0.245222 0.930461 3.218236 -1.256324 0.458099 -1.340270 -0.324400 -1.491454 -0.266424 -28.622062 6.592944 0.164852 -57.599273 -0.808302 6.490205 10.258114 -36.366930 0.479927 11.033073 -1.732463 -14.323769 27.464873 -0.880475 4.883171 53.653024 4.933359 12.064992 -15.117511 44.574204 -4.600162 -3.839025 4.370167 -9.204024 
